<?xml version="1.0" standalone="no"?>
<!DOCTYPE svg PUBLIC "-//W3C//DTD SVG 20010904//EN"
 "http://www.w3.org/TR/2001/REC-SVG-20010904/DTD/svg10.dtd">
<svg version="1.0" xmlns="http://www.w3.org/2000/svg"
 width="3380.000000pt" height="1884.000000pt" viewBox="0 0 3380.000000 1884.000000"
 preserveAspectRatio="xMidYMid meet">

<g transform="translate(0.000000,1884.000000) scale(0.100000,-0.100000)"
fill="#000000" stroke="none">
<path d="M9515 13357 c-93 -31 -172 -94 -236 -189 -34 -50 -2269 -4201 -2269
-4214 0 -2 214 -3 476 -2 l475 3 812 1542 c600 1138 815 1538 823 1530 12 -13
694 -1301 694 -1311 0 -3 -195 -6 -433 -6 l-433 0 -191 -362 -190 -363 821 -3
821 -2 272 -513 272 -512 501 -3 c476 -2 502 -1 495 15 -16 44 -2222 4144
-2255 4193 -52 76 -130 147 -198 178 -68 31 -192 40 -257 19z"/>
<path d="M2770 11125 l0 -2185 420 0 420 0 0 2185 0 2185 -420 0 -420 0 0
-2185z"/>
<path d="M5810 12440 l0 -870 -860 0 -860 0 0 -405 0 -405 860 0 860 0 0 -910
0 -910 420 0 420 0 0 2185 0 2185 -420 0 -420 0 0 -870z"/>
<path d="M12600 11130 l0 -2180 415 0 415 0 0 1710 0 1710 1048 0 c1158 0
1120 2 1260 -65 142 -67 245 -204 291 -386 39 -153 37 -369 -5 -534 -40 -157
-154 -310 -279 -373 -140 -70 -81 -66 -1000 -72 l-830 -5 -3 -397 -2 -398 608
0 608 0 474 -595 473 -595 596 0 595 0 -30 33 c-156 165 -1135 1282 -1128
1284 6 2 46 24 89 48 447 255 685 736 685 1382 0 774 -336 1331 -925 1531 -49
17 -135 41 -190 54 l-100 22 -1532 3 -1533 4 0 -2181z"/>
<path d="M17560 11130 l0 -2180 415 0 415 0 0 1710 0 1710 1015 0 c1132 0
1103 2 1245 -68 206 -101 320 -314 320 -597 0 -335 -157 -565 -446 -651 -54
-16 -128 -18 -857 -21 l-797 -4 2 -452 3 -452 740 -3 c460 -2 785 1 858 8 360
32 633 150 863 372 298 288 454 713 454 1233 0 802 -376 1359 -1030 1525 -194
50 -196 50 -1747 50 l-1453 0 0 -2180z"/>
<path d="M22210 11130 l0 -2180 1770 0 1770 0 0 470 0 470 -1355 0 -1355 0 0
1240 0 1240 1353 2 1352 3 3 468 2 467 -1770 0 -1770 0 0 -2180z"/>
<path d="M26280 11130 l0 -2180 415 0 415 0 0 1710 0 1710 1048 0 c1158 0
1120 2 1260 -65 142 -67 245 -204 291 -386 39 -153 37 -369 -5 -534 -40 -157
-154 -310 -279 -373 -140 -70 -81 -66 -1000 -72 l-830 -5 -3 -397 -2 -398 608
0 608 0 474 -595 473 -595 596 0 595 0 -30 33 c-156 165 -1135 1282 -1128
1284 6 2 46 24 89 48 447 255 685 736 685 1382 0 774 -336 1331 -925 1531 -49
17 -135 41 -190 54 l-100 22 -1532 3 -1533 4 0 -2181z"/>
<path d="M23527 11533 c-4 -3 -7 -170 -7 -370 l0 -363 1040 0 1040 0 -2 368
-3 367 -1031 3 c-567 1 -1034 -1 -1037 -5z"/>
<path d="M3312 7529 c-194 -25 -367 -125 -445 -259 -57 -98 -58 -111 -55 -787
l3 -619 37 -76 c65 -131 191 -227 359 -275 58 -16 110 -18 544 -18 l480 0 80
27 c256 87 375 246 375 502 l0 86 -220 0 -220 0 0 -86 c0 -102 -16 -144 -69
-176 -36 -23 -38 -23 -431 -23 -439 0 -439 0 -480 68 -19 31 -20 54 -20 617 0
569 1 586 20 618 12 19 38 41 63 52 39 18 69 20 418 20 372 0 376 0 419 -23
63 -33 80 -72 80 -179 l0 -88 220 0 220 0 0 73 c0 40 -5 100 -11 133 -39 216
-232 377 -493 413 -90 13 -778 13 -874 0z"/>
<path d="M7152 7530 c-196 -27 -367 -127 -445 -260 -57 -98 -58 -111 -55 -787
l3 -619 37 -76 c65 -131 191 -227 359 -275 58 -16 111 -18 579 -18 461 0 522
2 579 18 194 53 330 168 381 321 20 61 21 78 18 697 l-3 635 -38 76 c-64 131
-185 221 -364 270 -74 21 -100 22 -533 24 -250 1 -483 -2 -518 -6z m965 -351
c65 -41 63 -16 63 -673 l0 -594 -27 -33 c-50 -59 -51 -59 -525 -59 -483 0
-479 -1 -526 69 l-22 35 2 597 3 598 30 31 c17 18 39 36 50 40 11 5 222 9 469
9 439 1 449 1 483 -20z"/>
<path d="M10580 6515 l0 -1025 220 0 220 0 0 730 c0 402 2 730 5 730 3 0 226
-189 495 -421 l490 -421 0 -309 0 -309 220 0 220 0 -2 1023 -3 1022 -217 3
-218 2 -2 -459 -3 -459 -530 459 -529 459 -183 0 -183 0 0 -1025z"/>
<path d="M14912 7529 c-194 -25 -367 -125 -445 -259 -57 -98 -58 -111 -55
-787 l3 -619 37 -76 c65 -131 191 -227 359 -275 58 -16 110 -18 544 -18 l480
0 80 27 c256 87 375 246 375 502 l0 86 -220 0 -220 0 0 -86 c0 -102 -16 -144
-69 -176 -36 -23 -38 -23 -431 -23 -439 0 -439 0 -480 68 -19 31 -20 54 -20
617 0 569 1 586 20 618 12 19 38 41 63 52 39 18 69 20 418 20 372 0 376 0 419
-23 63 -33 80 -72 80 -179 l0 -88 220 0 220 0 0 73 c0 40 -5 100 -11 133 -39
216 -232 377 -493 413 -90 13 -778 13 -874 0z"/>
<path d="M18250 6516 l0 -1026 215 0 215 0 0 425 0 425 440 0 c502 0 506 -1
534 -71 14 -33 16 -96 16 -409 l0 -370 220 0 220 0 0 389 c0 366 -1 393 -21
457 -17 56 -31 77 -78 125 l-58 58 44 43 c24 24 58 72 76 108 32 64 32 65 35
246 4 201 -7 271 -55 354 -63 107 -196 199 -350 242 -76 22 -95 22 -765 26
l-688 3 0 -1025z m1340 685 c19 -10 45 -33 58 -51 21 -31 22 -43 22 -197 0
-186 -9 -221 -62 -250 -30 -16 -71 -18 -480 -21 l-448 -3 0 270 0 271 438 0
c406 0 440 -1 472 -19z"/>
<path d="M22070 6515 l0 -1025 805 0 805 0 0 165 0 165 -590 0 -590 0 0 260 0
260 458 2 457 3 3 168 2 167 -460 0 -460 0 0 260 0 260 590 0 590 0 0 170 0
170 -805 0 -805 0 0 -1025z"/>
<path d="M25524 7527 c-2 -7 -3 -82 -2 -167 l3 -155 373 -3 372 -2 0 -855 0
-855 230 0 230 0 0 855 0 855 375 0 375 0 0 170 0 170 -975 0 c-788 0 -977 -2
-981 -13z"/>
<path d="M29320 6515 l0 -1025 805 0 805 0 0 165 0 165 -590 0 -590 0 0 260 0
260 458 2 457 3 3 168 2 167 -460 0 -460 0 0 260 0 260 590 0 590 0 0 170 0
170 -805 0 -805 0 0 -1025z"/>
</g>
</svg>
