<?xml version="1.0" encoding="UTF-8" standalone="no"?>
<!-- Created with Inkscape (http://www.inkscape.org/) -->

<svg
   width="182.20799mm"
   height="49.423mm"
   viewBox="0 0 182.20799 49.423"
   version="1.1"
   id="svg5"
   xml:space="preserve"
   inkscape:version="1.2.1 (9c6d41e410, 2022-07-14)"
   sodipodi:docname="abc.svg"
   xmlns:inkscape="http://www.inkscape.org/namespaces/inkscape"
   xmlns:sodipodi="http://sodipodi.sourceforge.net/DTD/sodipodi-0.dtd"
   xmlns="http://www.w3.org/2000/svg"
   xmlns:svg="http://www.w3.org/2000/svg"><sodipodi:namedview
     id="namedview7"
     pagecolor="#606060"
     bordercolor="#000000"
     borderopacity="0.25"
     inkscape:showpageshadow="2"
     inkscape:pageopacity="0"
     inkscape:pagecheckerboard="0"
     inkscape:deskcolor="#d1d1d1"
     inkscape:document-units="mm"
     showgrid="false"
     inkscape:zoom="1.4142136"
     inkscape:cx="287.43891"
     inkscape:cy="137.88582"
     inkscape:window-width="1920"
     inkscape:window-height="1009"
     inkscape:window-x="-8"
     inkscape:window-y="-8"
     inkscape:window-maximized="1"
     inkscape:current-layer="layer1" /><defs
     id="defs2"><clipPath
       clipPathUnits="userSpaceOnUse"
       id="clipPath1858"><g
         id="g1862"><g
           inkscape:label="Clip"
           id="use1860"
           clip-path="url(#clipPath1858)"><path
             style="fill:#0000ff;stroke-width:0.264583"
             d="m 76.399576,111.06151 11.733114,0.17913 -5.64264,-6.80699 z"
             id="path1864" /><path
             style="display:inline;fill:#ff0000;fill-opacity:1;stroke-width:0.0497237"
             d="m 140.31581,146.4939 h 1.01035 l 0.40695,-0.78742 2.72234,-0.0202 0.56131,0.80763 1.06648,0.0202 -2.93283,-4.56304 z"
             id="path1866" /><path
             style="fill:#0000ff;stroke-width:0.0497237"
             d="m 142.19618,144.99981 1.83828,0.0404 -0.88405,-1.53447 z"
             id="path1868" /></g></g></clipPath><clipPath
       clipPathUnits="userSpaceOnUse"
       id="clipPath1915"><g
         inkscape:label="Clip"
         id="use1917" /></clipPath></defs><g
     inkscape:label="Layer 1"
     inkscape:groupmode="layer"
     id="layer1"><g
       inkscape:label="Layer 1"
       id="layer1-9"
       transform="translate(-14.038228,-97.270145)"><path
         style="fill:#ffffff;stroke-width:0.264583"
         d="m 14.18649,117.79853 9.373216,0.12666 18.873097,-20.646403 H 32.299597 Z"
         id="path240" /><path
         style="fill:#ffffff;stroke-width:0.264583"
         d="m 26.409672,117.86186 9.373216,0.12666 18.873097,-20.646398 H 44.522779 Z"
         id="path240-6" /><path
         style="fill:#ffffff;stroke-width:0.264583"
         d="m 38.696185,117.86186 9.373216,0.12666 18.873097,-20.646397 H 56.809292 Z"
         id="path240-7" /><path
         style="fill:#ffffff;stroke-width:0.264583"
         d="m 51.236028,117.86186 9.373216,0.12666 18.873097,-20.646398 H 69.349135 Z"
         id="path240-5" /><path
         id="path777"
         style="display:inline;fill:#ffffff;fill-opacity:1;stroke-width:0.264583"
         d="M 82.490055,97.537199 64.39762,117.68946 h 6.448702 l 2.597774,-3.49333 17.375683,-0.0894 3.582728,3.58273 6.806823,0.0894 z m 0,6.896221 5.64255,6.80734 -11.733134,-0.17932 z" /><path
         id="path777-1"
         style="display:inline;fill:#ffffff;fill-opacity:1;stroke-width:0.0497237"
         d="m 143.15044,141.95103 -2.83446,4.54287 h 1.01028 l 0.40669,-0.78755 2.72232,-0.0201 0.56172,0.8077 1.06608,0.0202 z m 0,1.55494 0.88418,1.53427 -1.83865,-0.0403 z" /><path
         id="path780"
         style="fill:#ffffff;fill-opacity:1;stroke-width:0.264583"
         d="m 113.63441,106.36922 -10.38955,0.0899 -0.0899,11.91194 2.59778,0.22428 0.0894,-4.5682 2.2841,-0.0444 4.47828,4.52272 3.80648,-0.1788 -5.41879,-4.52324 c 0,0 1.97051,0.045 3.17965,0.045 1.20914,0 1.34359,-1.47795 1.34359,-1.47795 0,0 -0.13456,-2.59773 -0.045,-4.29948 0.0896,-1.70175 -1.83606,-1.7017 -1.83606,-1.7017 z m -1.63246,2.09496 c 3.04524,1.61219 0.13436,3.26905 0.13436,3.26905 l -6.40375,0.0894 0.0894,-3.26905 z" /><path
         style="fill:#ffffff;fill-opacity:1;stroke-width:0.264583"
         d="m 117.41853,106.39867 v 2.27997 l 5.12994,-0.0633 v 9.75321 h 2.69163 l -0.095,-9.65821 5.2566,-0.0317 -0.0633,-2.50163 z"
         id="path788" /><path
         style="fill:#ffffff;fill-opacity:1;stroke-width:0.264583"
         d="m 156.77971,106.47782 v 2.27997 l 5.12994,-0.0633 v 9.75321 h 2.69163 l -0.095,-9.65821 5.2566,-0.0317 -0.0633,-2.50163 z"
         id="path788-6" /><path
         style="fill:#ffffff;fill-opacity:1;stroke-width:0.0954735"
         d="m 145.59561,142.24921 v 0.79246 l 1.92177,-0.022 v 3.39 h 1.00834 l -0.0356,-3.35698 1.96923,-0.011 -0.0236,-0.86951 z"
         id="path788-6-2" /><path
         style="fill:#ffffff;fill-opacity:1;stroke-width:0.264583"
         d="m 133.60969,106.31453 0.0672,12.11377 2.95567,0.0448 -0.0448,-12.18094 z"
         id="path790" /><path
         style="fill:#ffffff;fill-opacity:1;stroke-width:0.264583"
         d="m 172.90639,106.28383 0.0672,12.11377 2.95567,0.0448 -0.0448,-12.18094 z"
         id="path790-8" /><path
         style="fill:#ffffff;fill-opacity:1;stroke-width:0.264583"
         d="m 54.474533,122.49697 0.0672,12.11377 2.95567,0.0448 -0.0448,-12.18094 z"
         id="path790-2" /><path
         style="fill:#ffffff;fill-opacity:1;stroke-width:0.0845713"
         d="m 151.69079,142.34552 0.021,3.97378 0.92057,0.0147 -0.014,-3.99581 z"
         id="path790-2-6" /><path
         style="fill:#ffffff;fill-opacity:1;stroke-width:0.264583"
         d="m 62.718409,122.39158 3.179586,0.0224 0.04478,9.78506 9.202878,-0.0672 -0.02238,2.55262 -12.360071,0.17914 z"
         id="path849" /><path
         style="fill:#ffffff;fill-opacity:1;stroke-width:0.264583"
         d="m 101.20537,127.10844 v -2.50163 l 9.78488,0.0633 0.0317,-2.40664 H 97.975443 v 12.34985 h 13.173167 v -2.40664 h -9.94321 v -3.07162 h 5.60493 v -1.96331 z"
         id="path851" /><path
         style="fill:#ffffff;fill-opacity:1;stroke-width:0.264583"
         d="m 151.59002,109.60608 v -1.03001 h -8.01614 v 2.57501 h 8.62071 c 0,0 1.24272,-0.0896 1.24272,1.24273 0,1.33229 0,4.691 0,4.691 0,0 0.0672,1.49463 -1.49463,1.49463 -1.5618,0 -9.55554,0 -9.55554,0 0,0 -1.47504,0.0896 -1.47504,-1.47503 0,-1.5646 0,-1.78852 0,-1.78852 l 1.9452,-0.52121 v 1.55122 h 7.94902 c 0,0 0.71191,0.0528 0.71191,-0.41103 0,-0.46381 0,-2.45879 0,-2.45879 0,0 0.0566,-0.581 -1.00633,-0.581 -1.06293,0 -7.77618,0 -7.77618,0 0,0 -1.00781,0.095 -1.00781,-1.00782 0,-1.10281 0,-4.23777 0,-4.23777 0,0 0.0355,-1.02334 1.77247,-1.02334 1.73697,0 8.29189,0 8.29189,0 0,0 1.46958,-0.0633 1.46958,1.46958 0,1.5329 -1.67183,1.51035 -1.67183,1.51035 z"
         id="path853" /><path
         style="fill:#ffffff;fill-opacity:1;stroke-width:0.277959"
         d="m 145.18165,125.47935 v -1.04352 h -8.73264 v 2.60878 h 9.39125 c 0,0 1.35379,-0.0907 1.35379,1.25902 0,1.34975 0,4.7525 0,4.7525 0,0 0.0732,1.51423 -1.62822,1.51423 -1.7014,0 -10.40964,0 -10.40964,0 0,0 -1.60688,0.0907 -1.60688,-1.49438 0,-1.5851 0,-1.81197 0,-1.81197 l 2.11907,-0.52804 v 1.57157 h 8.65952 c 0,0 0.77554,0.0535 0.77554,-0.41642 0,-0.4699 0,-2.49103 0,-2.49103 0,0 0.0617,-0.58862 -1.09628,-0.58862 -1.15793,0 -8.47123,0 -8.47123,0 0,0 -1.09789,0.0962 -1.09789,-1.02103 0,-1.11728 0,-4.29334 0,-4.29334 0,0 0.0387,-1.03676 1.9309,-1.03676 1.89222,0 9.03304,0 9.03304,0 0,0 1.60093,-0.0641 1.60093,1.48885 0,1.553 -1.82126,1.53016 -1.82126,1.53016 z"
         id="path853-6" /><path
         style="fill:#ffffff;fill-opacity:1;stroke-width:0.264583"
         d="m 190.28262,108.40948 h -7.3624 v 7.9324 h 7.4574 c 0,0 0.68083,-0.0792 0.68083,-0.68082 0,-0.60166 0,-2.02664 0,-2.02664 l 2.55727,0.68521 v 2.40225 c 0,0 0.285,1.56363 -1.56363,1.56363 -1.84863,0 -10.49352,0 -10.49352,0 0,0 -1.63681,0.0633 -1.63681,-1.63681 0,-1.70013 0,-8.42922 0,-8.42922 0,0 -0.095,-1.8713 1.87131,-1.8713 1.9663,0 10.1837,0 10.1837,0 0,0 1.98064,0.17416 1.98064,1.98064 0,1.80647 0,2.23397 0,2.23397 l -3.3725,0.90366 v -3.08864 z"
         id="path877" /><path
         style="fill:#ffffff;fill-opacity:1;stroke-width:0.109431"
         d="m 107.04473,142.11418 h -2.87779 v 3.47153 h 2.91493 c 0,0 0.26611,-0.0347 0.26611,-0.29795 0,-0.26331 0,-0.88694 0,-0.88694 l 0.99958,0.29987 v 1.05132 c 0,0 0.1114,0.68431 -0.61119,0.68431 -0.72258,0 -4.10166,0 -4.10166,0 0,0 -0.6398,0.0277 -0.6398,-0.71633 0,-0.74405 0,-3.68896 0,-3.68896 0,0 -0.0371,-0.81896 0.73145,-0.81896 0.76859,0 3.98057,0 3.98057,0 0,0 0.77419,0.0762 0.77419,0.86681 0,0.79058 0,0.97767 0,0.97767 l -1.31824,0.39548 v -1.35171 z"
         id="path877-1" /><path
         id="path890"
         style="fill:#ffffff;fill-opacity:1;stroke-width:0.264583"
         d="m 14.026017,119.63042 0.06356,0.39119 v 14.56604 h 12.85658 c 0,0 2.786393,-0.28477 2.786393,-2.78639 v -3.07165 c 0,0 -1.154702,-1.78136 -2.01073,-2.01073 -0.856026,-0.22938 2.159558,-0.22955 2.159558,-1.24695 v -3.6773 c 0,0 -0.06326,-2.16421 -2.164209,-2.16421 z m 3.342949,2.66496 h 8.423258 c 0.759986,0 0.731222,0.41134 0.731222,0.41134 v 2.55023 c 0,0.65005 -1.095541,0.63252 -1.095541,0.63252 h -8.058939 z m -0.06511,5.72316 h 8.423259 c 0.759985,0 0.731221,0.41186 0.731221,0.41186 v 2.55024 c 0,0.65003 -1.095023,0.63252 -1.095023,0.63252 h -8.059457 z" /><path
         style="fill:#ff0000;fill-opacity:1;stroke-width:0.264583"
         d="m 17.330971,122.12289 v 3.51545"
         id="path939" /><path
         style="fill:#ffffff;fill-opacity:1;stroke-width:0.264583"
         d="m 35.149562,122.48514 h 3.071627 v 9.62654 h 8.106566 v -9.78487 h 3.198294 v 10.00654 c 0,0 0,2.31164 -2.311638,2.31164 -2.311638,0 -9.658212,0 -9.658212,0 0,0 -2.549136,0.25333 -2.549136,-2.54914 0,-2.80246 0.142499,-9.61071 0.142499,-9.61071 z"
         id="path1034" /><path
         id="path1036"
         style="fill:#ffffff;fill-opacity:1;stroke-width:0.264583"
         d="m 78.719226,122.34705 v 12.15844 h 9.090918 c 0,0 6.112805,-0.78366 6.112805,-6.11281 0,-5.32915 -5.732466,-6.04563 -5.732466,-6.04563 z m 2.790011,2.16473 h 6.649723 c 0,0 2.976562,1.26684 2.976562,3.83181 0,2.56496 -3.103169,3.70468 -3.103169,3.70468 h -6.523116 z" /><path
         id="path1040"
         style="fill:#ffffff;fill-opacity:1;stroke-width:0.264583"
         d="m 115.53972,122.34705 v 12.1357 h 2.70939 v -4.70204 h 2.7988 l 4.81417,4.81418 h 4.83692 l -5.91178,-4.90358 h 2.70939 c 0,0 1.36633,7e-5 1.36633,-1.36581 v -4.50102 c 0,0 0.0893,-1.47743 -1.79163,-1.47743 z m 2.43292,2.18075 h 7.61556 c 0.91832,0 0.77618,0.72812 0.77618,0.72812 v 1.91565 c 0,1.06082 -0.96583,0.96583 -0.96583,0.96583 h -7.42591 z" /><path
         id="path1040-2"
         style="fill:#ffffff;fill-opacity:1;stroke-width:0.0862829"
         d="m 116.91948,142.13913 v 4.21524 h 0.82941 v -1.63349 h 0.85679 l 1.47381,1.67225 h 1.48105 l -1.80971,-1.70325 h 0.82941 c 0,0 0.41806,5e-5 0.41806,-0.47439 v -1.56322 c 0,0 0.0276,-0.51314 -0.54829,-0.51314 z m 0.74466,0.75706 h 2.33164 c 0.28113,0 0.23771,0.25321 0.23771,0.25321 v 0.66559 c 0,0.36848 -0.29559,0.33538 -0.29559,0.33538 h -2.27376 z" /><path
         id="path1040-2-5"
         style="fill:#ffffff;fill-opacity:1;stroke-width:0.0862829"
         d="m 135.26254,142.26935 v 4.21525 h 0.82993 v -1.63349 h 0.85679 l 1.47382,1.67225 h 1.48104 l -1.81022,-1.70326 h 0.82992 c 0,0 0.41806,5e-5 0.41806,-0.47439 v -1.56321 c 0,0 0.0271,-0.51315 -0.5488,-0.51315 z m 0.74518,0.75706 h 2.33164 c 0.28113,0 0.23771,0.25322 0.23771,0.25322 v 0.66559 c 0,0.36848 -0.2961,0.33538 -0.2961,0.33538 h -2.27325 z" /><path
         id="path1040-2-4"
         style="fill:#ffffff;fill-opacity:1;stroke-width:0.0862829"
         d="m 122.92686,142.23163 v 4.21576 h 0.82941 v -1.63349 l 2.83135,-0.0315 c 9.5e-4,-1.8e-4 0.002,-7e-5 0.003,5.1e-4 0.0167,-2.2e-4 0.41496,-0.0102 0.41496,-0.47439 v -1.56372 c 0,0 0.0995,-0.51315 -0.54828,-0.51315 z m 0.85887,0.68316 h 2.33164 c 0.28113,0 0.23719,0.25322 0.23719,0.25322 v 0.66559 c 0,0.36848 -0.29559,0.33538 -0.29559,0.33538 h -2.27324 z" /><rect
         style="fill:#ffffff;fill-opacity:1;stroke-width:0.264583"
         id="rect1148"
         width="182.20772"
         height="1.8999763"
         x="13.933159"
         y="137.05164" /><path
         style="fill:#ffffff;fill-opacity:1;stroke-width:0.264583"
         d="m 160.89625,146.60736 h 1.0056 v -2.85311 l 2.93496,2.93496 h 0.71327 v -4.82923 h -0.95883 v 2.99342 l -3.06357,-3.06358 h -0.58465 z"
         id="path1780" /><path
         id="path1782"
         style="fill:#ffffff;fill-opacity:1;stroke-width:0.264583"
         d="m 154.40711,142.01717 c -0.0926,0.003 -0.33951,0.0634 -0.33951,0.61443 v 3.27422 c 0,0 0.0145,0.72141 0.41651,0.72141 h 4.09691 c 0,0 0.6413,0.0468 0.6413,-0.64131 v -3.23701 c 0,0 0.14055,-0.73019 -0.72967,-0.73019 h -4.05091 c 0,0 -0.0132,-0.002 -0.0346,-0.002 z m 0.82993,0.79995 c 0.0138,-4.6e-4 0.0222,0.001 0.0222,0.001 h 2.61948 c 0.56292,0 0.47232,0.45216 0.47232,0.45216 v 2.00557 c 0,0.42612 -0.41496,0.39739 -0.41496,0.39739 h -2.64945 c -0.26132,0 -0.26924,-0.447 -0.26924,-0.447 v -2.0283 c 0,-0.3414 0.15972,-0.37886 0.21963,-0.38086 z" /><path
         id="path1782-4"
         style="fill:#ffffff;fill-opacity:1;stroke-width:0.264583"
         d="m 128.52859,142.09107 c -0.0926,0.003 -0.34003,0.0634 -0.34003,0.61443 v 3.27422 c 0,0 0.0145,0.7214 0.41651,0.7214 h 4.09742 c 0,0 0.64079,0.0468 0.64079,-0.6413 v -3.23701 c 0,0 0.14055,-0.73019 -0.72967,-0.73019 h -4.05091 c 0,0 -0.0127,-0.002 -0.0341,-0.002 z m 0.79633,0.81959 c 0.0138,-4.6e-4 0.0227,0.001 0.0227,0.001 h 2.61948 c 0.56293,0 0.4718,0.45217 0.4718,0.45217 v 2.00556 c 0,0.42612 -0.41444,0.39739 -0.41444,0.39739 h -2.64997 c -0.26132,0 -0.26923,-0.447 -0.26923,-0.447 v -2.0283 c 0,-0.34139 0.15972,-0.37885 0.21962,-0.38085 z" /><path
         id="path1782-40"
         style="fill:#ffffff;fill-opacity:1;stroke-width:0.264583"
         d="m 110.40463,142.02492 c -0.0926,0.003 -0.34003,0.0634 -0.34003,0.61444 v 3.27421 c 0,0 0.0145,0.72141 0.41651,0.72141 h 4.09743 c 0,0 0.64078,0.0468 0.64078,-0.64131 v -3.23701 c 0,0 0.14055,-0.73019 -0.72967,-0.73019 h -4.05091 c 0,0 -0.0127,-0.002 -0.0341,-0.002 z m 0.85266,0.8816 c 0.0138,-4.6e-4 0.0227,0.001 0.0227,0.001 h 2.61948 c 0.56293,0 0.4718,0.45216 0.4718,0.45216 v 2.00608 c 0,0.42612 -0.41444,0.3974 -0.41444,0.3974 h -2.64945 c -0.26132,0 -0.26975,-0.44701 -0.26975,-0.44701 v -2.02881 c 0,-0.3414 0.15972,-0.37886 0.21962,-0.38086 z" /></g></g></svg>
