<?xml version="1.0" standalone="no"?>
<!DOCTYPE svg PUBLIC "-//W3C//DTD SVG 20010904//EN"
 "http://www.w3.org/TR/2001/REC-SVG-20010904/DTD/svg10.dtd">
<svg version="1.0" xmlns="http://www.w3.org/2000/svg"
 width="540.000000pt" height="428.000000pt" viewBox="0 0 540.000000 428.000000"
 preserveAspectRatio="xMidYMid meet">

<g transform="translate(0.000000,428.000000) scale(0.100000,-0.100000)"
fill="#000000" stroke="none">
<path d="M4051 4131 c-21 -20 -46 -31 -79 -36 -32 -4 -58 -16 -81 -36 -19 -16
-36 -29 -38 -29 -2 0 -23 11 -46 24 -45 27 -114 37 -285 41 -53 2 -139 6 -191
10 -86 7 -97 5 -139 -16 -50 -26 -82 -69 -82 -112 0 -15 -6 -43 -14 -62 -30
-70 -131 -63 -177 12 -29 48 -38 54 -69 48 -15 -3 -34 1 -45 9 -29 22 -54 19
-97 -10 -46 -32 -60 -25 -78 41 -18 63 -40 80 -108 79 -39 0 -70 -7 -99 -23
-41 -22 -43 -22 -102 -5 -33 9 -71 14 -85 10 -14 -3 -58 -36 -98 -71 -63 -58
-160 -119 -405 -256 -23 -13 -58 -39 -79 -58 -21 -19 -60 -50 -87 -68 -26 -18
-68 -53 -92 -78 -30 -30 -53 -45 -70 -45 -14 0 -49 -16 -78 -35 -36 -25 -63
-35 -90 -35 -21 0 -50 -8 -64 -17 -18 -12 -57 -20 -113 -24 -85 -6 -87 -7
-188 -72 -56 -36 -126 -90 -155 -119 -51 -50 -56 -60 -95 -183 -23 -71 -46
-152 -52 -180 -13 -57 -27 -99 -44 -135 -17 -38 -94 -116 -145 -149 -25 -17
-65 -53 -89 -80 -23 -27 -68 -68 -101 -91 -53 -37 -59 -45 -69 -93 -27 -127
-48 -447 -33 -503 6 -24 40 -78 81 -130 55 -70 75 -106 95 -167 18 -54 37 -91
62 -118 20 -21 40 -39 44 -39 5 0 32 -11 61 -24 29 -13 86 -29 126 -36 39 -7
72 -16 72 -20 0 -13 77 -47 133 -59 32 -7 88 -28 125 -47 37 -18 76 -34 87
-34 11 0 63 -9 115 -21 52 -11 120 -24 150 -29 120 -21 124 -23 131 -60 8 -50
26 -73 75 -99 24 -13 59 -44 78 -70 20 -25 39 -50 44 -56 4 -5 48 -61 96 -123
49 -61 95 -112 102 -112 23 0 149 -91 187 -136 33 -37 44 -44 75 -44 30 0 42
6 65 35 32 41 75 47 108 16 12 -11 37 -22 56 -26 20 -3 45 -12 57 -20 12 -7
64 -28 116 -46 81 -27 115 -33 227 -38 84 -4 137 -11 145 -19 14 -14 54 -16
63 -2 3 5 18 10 32 10 15 0 53 5 85 12 53 11 60 10 98 -11 36 -20 46 -21 101
-13 60 9 63 8 157 -36 54 -24 104 -47 112 -51 8 -4 54 -20 101 -36 l86 -29 49
31 c27 17 60 34 73 38 14 4 34 16 45 27 11 10 32 22 46 25 14 3 42 21 63 39
20 19 42 34 48 34 14 0 76 50 134 107 33 33 52 44 85 48 76 10 94 33 71 90
-10 24 4 45 30 45 11 0 28 17 44 44 20 35 37 48 79 66 30 12 64 32 77 46 12
13 34 24 47 24 17 0 39 15 66 44 23 24 50 46 61 48 17 3 20 10 17 53 -2 28 -5
52 -7 53 -8 8 -162 1 -195 -8 -42 -12 -120 -13 -120 -2 0 17 52 32 106 32 44
0 62 5 88 25 18 14 40 25 49 25 9 0 22 9 31 21 12 18 26 21 110 23 53 2 99 5
102 9 24 24 30 163 10 231 -13 42 -12 51 5 98 10 29 15 56 10 61 -4 4 -27 4
-49 -2 -38 -8 -42 -7 -42 11 0 10 9 41 21 68 20 47 20 50 3 132 -41 197 -13
324 97 448 54 60 69 84 95 160 17 50 34 93 37 97 4 3 7 14 7 24 0 10 17 39 37
66 20 26 50 75 66 108 16 33 47 90 68 127 30 52 39 77 39 115 1 26 9 73 20
103 22 62 28 227 9 262 -9 17 -17 19 -53 14 -39 -6 -43 -4 -54 19 -7 14 -12
40 -12 58 -1 18 -7 43 -15 57 -8 14 -14 42 -15 63 0 25 -9 50 -25 71 -18 24
-25 46 -25 77 0 76 -7 86 -99 144 -66 42 -93 66 -114 103 -19 32 -50 62 -95
93 -64 43 -72 46 -177 58 -162 18 -239 50 -250 102 -6 28 -9 29 -60 29 -46 0
-57 4 -91 35 -49 45 -89 47 -133 6z m-3089 -1304 l3 -163 220 163 220 163 93
0 c50 0 92 -3 92 -7 -1 -5 -141 -112 -313 -239 l-312 -230 -3 -102 -3 -102
-74 0 -75 0 0 333 c0 184 3 337 7 340 3 4 37 7 74 7 l69 0 2 -163z m1376 -17
c51 -96 131 -248 178 -337 l85 -163 -78 0 -78 0 -38 75 -39 75 -209 0 -209 0
-37 -75 -37 -75 -78 0 c-43 0 -78 3 -78 6 0 3 30 62 66 130 l65 124 231 -7
c142 -4 229 -3 227 3 -15 35 -145 274 -149 274 -3 0 -30 -45 -60 -100 l-53
-100 -74 0 c-47 0 -73 4 -73 11 0 12 155 305 173 327 7 9 34 12 91 10 l81 -3
93 -175z m494 -61 l3 -241 37 -33 c46 -43 102 -59 203 -59 98 0 156 16 198 54
l32 28 5 244 5 243 73 3 72 3 0 -243 c0 -276 -5 -298 -76 -356 -69 -57 -132
-75 -286 -80 -118 -4 -146 -1 -205 16 -89 27 -153 71 -183 124 -24 42 -25 50
-28 277 -2 128 -1 239 2 247 4 10 25 14 75 14 l70 0 3 -241z m1252 219 c13
-22 279 -526 325 -615 l21 -43 -78 0 -79 0 -38 75 -38 75 -208 0 -209 0 -37
-75 -37 -75 -78 0 c-43 0 -78 2 -78 6 0 3 30 61 66 129 l66 125 230 -7 c142
-4 229 -3 227 3 -16 38 -145 274 -150 274 -4 0 -30 -45 -59 -100 l-53 -100
-73 0 c-48 0 -74 4 -74 11 0 12 155 305 172 327 7 8 38 12 89 12 71 0 80 -2
93 -22z m576 -323 l0 -335 -75 0 -75 0 0 335 0 335 75 0 75 0 0 -335z m-3240
-102 c69 -75 145 -158 168 -185 l44 -48 -91 0 -90 0 -133 146 c-73 80 -134
149 -136 153 -4 12 78 71 98 71 9 0 72 -62 140 -137z m-169 -483 c75 -21 115
-98 88 -173 -24 -70 -56 -81 -236 -85 l-153 -4 0 -74 0 -74 -45 0 -45 0 0 110
0 110 173 0 c140 0 177 3 195 16 25 18 29 60 8 90 -13 17 -29 19 -150 22
l-136 4 0 -41 0 -41 -45 0 -45 0 0 75 0 75 178 0 c97 0 193 -5 213 -10z m239
-165 l0 -174 113 -3 112 -3 3 -32 3 -33 -160 0 -161 0 0 210 0 210 45 0 45 0
0 -175z m370 23 c4 -132 7 -150 26 -168 43 -44 194 -43 241 2 21 20 23 30 25
167 l3 146 45 0 45 0 3 -145 c3 -172 -6 -200 -78 -240 -37 -20 -62 -25 -142
-28 -119 -5 -183 13 -228 64 l-30 35 0 160 0 160 43 -3 42 -3 5 -147z m530
-58 l0 -210 -45 0 -45 0 0 210 0 210 45 0 45 0 0 -210z m500 0 l0 -210 -50 0
-49 0 -3 146 -3 146 -93 -116 c-51 -64 -96 -116 -100 -116 -4 0 -44 47 -89
104 -79 100 -83 106 -83 155 0 35 4 51 13 51 7 0 46 -43 86 -95 l73 -95 96
120 95 120 54 0 53 0 0 -210z m452 200 c79 -22 115 -118 66 -171 l-23 -24 28
-25 c33 -29 45 -91 25 -130 -28 -53 -64 -60 -290 -60 l-208 0 0 35 0 35 193 0
c207 0 217 2 217 51 0 47 -20 53 -176 58 l-144 3 0 -36 0 -36 -45 0 -45 0 0
155 0 155 183 0 c100 0 199 -5 219 -10z m248 -200 l0 -210 -45 0 -45 0 0 210
0 210 45 0 45 0 0 -210z m140 0 l0 -210 -45 0 -45 0 0 210 0 210 45 0 45 0 0
-210z m400 0 l0 -211 -58 3 -57 3 -127 135 c-126 134 -127 136 -128 183 0 31
4 47 13 47 6 0 69 -59 139 -132 l127 -133 1 158 0 157 45 0 45 0 0 -210z m388
194 c20 -8 52 -29 69 -46 l33 -32 -22 -23 c-25 -26 -53 -30 -62 -8 -10 28 -69
55 -119 55 -81 0 -136 -44 -151 -119 -28 -148 155 -237 255 -123 l33 37 -82 3
-82 3 0 34 0 35 130 0 130 0 0 -24 c0 -39 -29 -109 -58 -139 -47 -50 -99 -70
-179 -70 -90 0 -154 29 -198 91 -40 57 -48 158 -17 218 25 48 66 88 112 108
46 20 160 20 208 0z"/>
<path d="M3030 1945 l0 -55 126 0 c120 0 159 7 176 34 13 18 9 35 -12 56 -18
18 -33 20 -155 20 l-135 0 0 -55z"/>
</g>
</svg>
